# xmcd CD database file
#
# Track frame offsets:
#	150
#	12784
#	32408
#	45563
#	64626
#	84041
#	96527
#	118004
#	135251
#	154558
#	174611
#	196204
#	220718
#	253428
#	276719
#	294871
#	316171
#	336476
#
# Disc length: 4683 seconds
#
# Revision: 0
# Processed by: cddbd v1.5.2PL0 Copyright (c) Steve Scherf et al.
# Submitted via: CDex 1.51
#
DISCID=fa124912
DTITLE=Various Artist - Collection Fnac 60 Ans - Blues-Jazz - CD2 - Classic Jazz
DYEAR=2014
DGENRE=Jazz
TTITLE0=Miles Davis - Générique (Ascenseur pour l'échafaud)
TTITLE1=John Coltrane - Naima
TTITLE2=DAVE BRUBECK - Take five
TTITLE3=John Coltrane and Duke Ellington - In A Sentimental Mood
TTITLE4=Sonny Rollins - Body and Soul
TTITLE5=Quincy Jones - Soul -  Bossa Nova
TTITLE6=Charles Mingus - Goodbye Prk Pie Hat
TTITLE7=Count Basie - April In Paris
TTITLE8=Dizzy Gillespie - A Night In Tunisia
TTITLE9=Stephane Grapelli - Nuages
TTITLE10=Wes Montgomery - Bumpin' On Sunset
TTITLE11=Herbie Hancock - Cantaloupe Island
TTITLE12=Horace Silver - Song For My Father
TTITLE13=Cannonball Aderley - Mercy
TTITLE14=Archie Shepp_Blues For Brother George Jackson
TTITLE15=Michel Petrucciani - September Second
TTITLE16=Didier Lockwood -  La Javanaise
TTITLE17=Trombone Shorty_Hurricane Season
EXTD=YEAR: 2014
EXTT0=
EXTT1=
EXTT2=
EXTT3=
EXTT4=
EXTT5=
EXTT6=
EXTT7=
EXTT8=
EXTT9=
EXTT10=
EXTT11=
EXTT12=
EXTT13=
EXTT14=
EXTT15=
EXTT16=
EXTT17=
PLAYORDER=
